<?xml version="1.0" encoding="iso-8859-1"?>
<!-- Generator: Adobe Illustrator 19.0.0, SVG Export Plug-In . SVG Version: 6.00 Build 0)  -->
<svg version="1.1" id="Capa_1" xmlns="http://www.w3.org/2000/svg" xmlns:xlink="http://www.w3.org/1999/xlink" x="0px" y="0px"
	 viewBox="0 0 496 496" style="enable-background:new 0 0 496 496;" xml:space="preserve">
<g>
	<g>
		<g>
			<path d="M453.44,264h-40v-32h-28.416c7.84-8.616,12.416-19.84,12.416-32c0-26.472-21.528-48-48-48v-32
				c0-17.096-6.656-33.168-18.744-45.256c-10.496-10.496-24-16.904-38.576-18.4C284.376,23.8,254.84,0,220.872,0H205.44
				c-79.4,0-144,64.6-144,144v8c-26.472,0-48,21.528-48,48c0,14.112,6.048,27.048,16.36,36c-10.312,8.952-16.36,21.888-16.36,36
				c0,20.64,13.112,38.576,32.088,45.208c-0.056,0.936-0.088,1.864-0.088,2.792c0,16.704,8.584,31.424,21.568,40.024
				c-17.904,12.456-31.52,30.616-38.072,51.584L2.56,496h250.88h8h232V304C493.44,281.944,475.496,264,453.44,264z M397.44,248v16
				h-48v-16H397.44z M205.44,328c-52.936,0-96-43.064-96-96v-36.208c0-15.32,12.472-27.792,27.792-27.792h16.208h11.504
				c42.792,0,85.064-11.016,122.408-31.888c7.92,0.944,14.088,7.712,14.088,15.888v80c0,11.032-1.952,21.752-5.576,32h-2.424
				c-22.056,0-40,17.944-40,40v11.096C238.888,323.512,222.4,328,205.44,328z M245.44,336.6v5.176l-40,66.672l-40-66.672v-5.288
				c12.44,4.784,25.896,7.512,40,7.512C219.224,344,232.752,341.456,245.44,336.6z M149.44,328.84v8.288l-11.928,1.84
				c2.064-4.76,3.336-9.92,3.744-15.328C143.896,325.496,146.64,327.216,149.44,328.84z M269.44,304c0-13.232,10.768-24,24-24h24v32
				h16v-32h16v64h-56c-13.232,0-24-10.768-24-24V304z M381.44,360v50.232c-6.712-20.392-20.072-38.056-37.592-50.232H381.44z
				 M61.44,320c0-2.208,0.272-4.488,0.824-6.96l1.816-8.168l-8.232-1.448C40.544,300.712,29.44,287.496,29.44,272
				c0-12.36,7.008-23.392,18.304-28.784L62.864,236l-15.12-7.216C36.448,223.392,29.44,212.36,29.44,200c0-17.648,14.352-32,32-32
				c2.136,0,4.296,0.216,6.416,0.648l9.584,1.936V144c0-70.576,57.424-128,128-128h15.432c28.296,0,52.648,21.12,56.648,49.136
				L278.504,72h6.936c0,0,0,0,0.008,0c12.816,0,24.864,4.992,33.936,14.056c9.064,9.064,14.056,21.12,14.056,33.944v50.592
				l9.584-1.944c2.12-0.432,4.28-0.648,6.416-0.648c17.648,0,32,14.352,32,32c0,12.36-7.008,23.392-18.304,28.784L356.4,232h-22.96
				v32h-20.672c3.088-10.336,4.672-21.048,4.672-32v-80c0-17.648-14.352-32-32-32h-2.128l-1.84,1.056
				C246.04,141.304,205.744,152,164.944,152H137.24c-24.152,0-43.8,19.648-43.8,43.792V232c0,29.032,11.192,55.424,29.376,75.344
				c1.736,3.992,2.624,8.248,2.624,12.656c0,8.64-3.472,16.464-9.056,22.224l-0.16,0.024l0.024,0.144
				c-5.816,5.92-13.88,9.608-22.808,9.608C75.792,352,61.44,337.648,61.44,320z M253.44,440v40H102.504l6.872-55.008l-15.872-1.984
				L86.376,480H24.32l19.88-63.624c6.608-21.16,21.736-39.008,41.504-49.056c2.528,0.408,5.096,0.68,7.736,0.68
				c11.416,0,21.896-4.016,30.144-10.696l29.76-4.576l52.096,86.816l52.056-86.76l18.616,3.096c5.264,2.56,11.096,4.12,17.328,4.12
				h6.84l25.208,7.456c19.496,10.008,34.408,27.656,41.048,48.544H277.44C264.208,416,253.44,426.768,253.44,440z M477.44,416
				h-17.472c0.896-2.512,1.472-5.184,1.472-8c0-13.232-10.768-24-24-24s-24,10.768-24,24s10.768,24,24,24h40v48h-208v-40
				c0-4.416,3.592-8,8-8h120v-88h-32v-64h48h40c13.232,0,24,10.768,24,24V416z M445.44,408c0,4.416-3.592,8-8,8
				c-4.408,0-8-3.584-8-8c0-4.416,3.592-8,8-8C441.848,400,445.44,403.584,445.44,408z"/>
			<path d="M413.44,368h48v-48h-48V368z M429.44,336h16v16h-16V336z"/>
			<path d="M133.44,188c0,11.024,8.976,20,20,20s20-8.976,20-20s-8.976-20-20-20S133.44,176.976,133.44,188z M153.44,184
				c2.208,0,4,1.792,4,4s-1.792,4-4,4s-4-1.792-4-4S151.232,184,153.44,184z"/>
			<path d="M257.44,208c11.024,0,20-8.976,20-20s-8.976-20-20-20s-20,8.976-20,20S246.416,208,257.44,208z M257.44,184
				c2.208,0,4,1.792,4,4s-1.792,4-4,4s-4-1.792-4-4S255.232,184,257.44,184z"/>
			<path d="M253.44,232c0,26.472-21.528,48-48,48s-48-21.528-48-48h-16c0,35.288,28.712,64,64,64c35.288,0,64-28.712,64-64H253.44z"
				/>
		</g>
	</g>
</g>
<g>
</g>
<g>
</g>
<g>
</g>
<g>
</g>
<g>
</g>
<g>
</g>
<g>
</g>
<g>
</g>
<g>
</g>
<g>
</g>
<g>
</g>
<g>
</g>
<g>
</g>
<g>
</g>
<g>
</g>
</svg>
