<svg id="Capa_1" enable-background="new 0 0 512 512" height="512" viewBox="0 0 512 512" width="512" xmlns="http://www.w3.org/2000/svg"><g><g><path clip-rule="evenodd" d="m166.656 281.049-66.581 20.53c-18.719 5.753-30.107 19.391-36.065 35.628l39.51 101.363c165.576 42.665 272.076 51.105 216.387-139.473-.058-.175.088-.38.117-.555l-56.74-17.493z" fill="#3bc3a4" fill-rule="evenodd"/></g><g><path clip-rule="evenodd" d="m191.274 239.251c-8.644-3.212-16.937-7.797-24.617-13.375v55.173 6.483c0 43.395 96.63 43.395 96.63 0v-6.483-55.173c-7.68 5.578-15.974 10.163-24.617 13.375-8.585 3.183-16.12 4.76-23.683 4.76s-15.128-1.577-23.713-4.76z" fill="#fed1a3" fill-rule="evenodd"/></g><g><path d="m44.737 410.872h-25.23c-10.46 0-18.969-8.496-18.969-18.94v-28.094c0-10.444 8.509-18.94 18.969-18.94h25.23c4.268 0 7.726 3.459 7.726 7.726s-3.459 7.726-7.726 7.726h-25.23c-1.905 0-3.516 1.597-3.516 3.487v28.094c0 1.89 1.611 3.487 3.516 3.487h25.23c4.268 0 7.726 3.459 7.726 7.726s-3.458 7.728-7.726 7.728z" fill="#beb9dd"/></g><g><path clip-rule="evenodd" d="m120.4 150.483h-17.726c-8.235 0-14.951 6.658-14.951 14.893v8.294c0 16.003 15.915 24.676 32.297 24.822h3.446c10.133-15.185 7.914-32.298-3.066-48.009z" fill="#ffbc85" fill-rule="evenodd"/></g><g><path clip-rule="evenodd" d="m169.43 90.938c-3.855 29.436-38.459 31.13-49.03 39.278v48.944c0 6.22 1.051 12.762 3.066 19.332 6.454 21.347 22.602 43.337 43.19 58.289 7.68 5.578 15.974 10.163 24.617 13.375 8.585 3.183 16.149 4.76 23.712 4.76s15.097-1.577 23.683-4.76c8.644-3.212 16.937-7.797 24.617-13.375 20.587-14.952 36.736-36.942 43.19-58.289 2.015-6.571 3.095-13.112 3.095-19.332v-48.944c-26.514-55.748-100.337-9.287-140.14-39.278z" fill="#ffe5c1" fill-rule="evenodd"/></g><g><path clip-rule="evenodd" d="m306.476 198.492h3.446c16.382-.146 32.298-8.819 32.298-24.822v-8.294c0-8.235-6.716-14.893-14.951-14.893h-17.696c-16.851 12.44-22.779 28.239-3.097 48.009z" fill="#ffbc85" fill-rule="evenodd"/></g><g><path clip-rule="evenodd" d="m123.058 419.062v-73.592c0-4.556-3.709-8.264-8.264-8.264h-50.783-11.009c-4.556 0-8.264 3.709-8.264 8.264v7.155 50.521 15.916c0 10.717 8.79 19.508 19.536 19.508l19.624 14.711 19.624-14.711c10.746-.001 19.536-8.791 19.536-19.508z" fill="#dddaec" fill-rule="evenodd"/></g><g><path clip-rule="evenodd" d="m263.286 287.532c0 10.104-5.256 17.872-13.316 23.275 6.541 20.822 10.162 43.775 10.162 67.897 0 8.294-.438 16.47-1.256 24.443h39.686l21.347-104.05c.029-.175.088-.38.117-.555l-56.74-17.493z" fill="#00a887" fill-rule="evenodd"/></g><g><path clip-rule="evenodd" d="m97.652 345.47v73.591c0 10.717-8.79 19.508-19.536 19.508h25.406c10.746 0 19.536-8.79 19.536-19.508v-73.591c0-4.556-3.709-8.264-8.264-8.264h-25.406c4.555 0 8.264 3.709 8.264 8.264z" fill="#beb9dd" fill-rule="evenodd"/></g><g><path clip-rule="evenodd" d="m309.571 150.483c-7.622-16.032-19.127-23.596-32.648-26.983v42.169c0 6.249-2.628 12.762-4.614 19.361-6.483 21.318-22.632 43.337-43.219 58.289-7.68 5.549-15.974 10.133-24.617 13.346-8.556 3.183-16.12 4.76-23.683 4.76-2.716 0-5.402-.204-8.177-.613 5.957 3.767 12.206 6.95 18.66 9.345 8.585 3.183 16.149 4.76 23.712 4.76s15.097-1.577 23.683-4.76c8.644-3.212 16.937-7.797 24.617-13.375 20.587-14.952 36.736-36.942 43.19-58.289 2.015-6.571 3.095-13.112 3.095-19.332v-28.678z" fill="#fed1a3" fill-rule="evenodd"/></g><g><path clip-rule="evenodd" d="m120.4 150.483c10.571-8.148 45.176-9.841 49.03-39.249 5.928-14.368 5.432-52.653-8.936-68.598-34.867 6.133-49.848 33.087-45.205 68.656z" fill="#2b4d66" fill-rule="evenodd"/></g><g><path clip-rule="evenodd" d="m169.43 111.234c39.802 29.991 113.625-16.5 140.141 39.249 5.198-39.95 6.366-78.76-29.26-109.044-32.911-27.976-104.047-28.998-119.816 1.198-7.038 16.499-6.717 54.784 8.935 68.597z" fill="#375e7d" fill-rule="evenodd"/></g><g><path clip-rule="evenodd" d="m246.144 27.977c31.567 26.837 34.225 60.421 30.779 95.523 13.521 3.388 25.026 10.951 32.648 26.983 5.198-39.95 6.366-78.76-29.26-109.044-10.717-9.111-25.493-15.361-41.087-18.602 2.452 1.606 4.759 3.3 6.92 5.14z" fill="#2b4d66" fill-rule="evenodd"/></g><g><path clip-rule="evenodd" d="m166.656 277.428c7.68 5.578 15.974 10.163 24.617 13.375 8.585 3.183 16.149 4.76 23.712 4.76s15.097-1.577 23.683-4.76c14.163-5.256 11.301-8.352 11.301 9.929v10.075c8.06-5.403 13.316-13.171 13.316-23.275v-6.483-24.268c-7.68 5.578-15.974 10.163-24.617 13.375-8.585 3.183-16.12 4.76-23.683 4.76s-15.127-1.577-23.712-4.76c-6.454-2.395-12.703-5.578-18.66-9.345-2.015-1.256-4.001-2.628-5.957-4.03z" fill="#ffbc85" fill-rule="evenodd"/></g><g><path d="m256.366 181.542c-4.268 0-7.726-3.459-7.726-7.726v-7.388c0-4.267 3.459-7.726 7.726-7.726s7.726 3.459 7.726 7.726v7.388c0 4.267-3.459 7.726-7.726 7.726z" fill="#2b4d66"/></g><g><path d="m176.176 181.542c-4.268 0-7.726-3.459-7.726-7.726v-7.388c0-4.267 3.459-7.726 7.726-7.726s7.726 3.459 7.726 7.726v7.388c.001 4.267-3.458 7.726-7.726 7.726z" fill="#2b4d66"/></g><g><path d="m216.266 238.598c-7.829 0-15.19-3.051-20.731-8.594-3.017-3.017-3.017-7.909.001-10.927 3.017-3.017 7.909-3.016 10.927.001 2.622 2.623 6.104 4.066 9.805 4.066h.012c3.691-.003 7.158-1.444 9.763-4.057 3.01-3.023 7.902-3.031 10.927-.019 3.023 3.012 3.031 7.904.019 10.927-5.521 5.541-12.871 8.596-20.696 8.602-.01 0-.019.001-.027.001z" fill="#ffbc85"/></g><g><path clip-rule="evenodd" d="m228.302 410.33v10.542c0 9.725 7.972 17.697 17.696 17.697l25.97 11.105 19.323-11.105 13.871-17.697-6.6-17.726h-63.106c-3.942 0-7.154 3.241-7.154 7.184z" fill="#a7a2d3" fill-rule="evenodd"/></g><g><path clip-rule="evenodd" d="m319.909 299.096-21.347 104.05-7.271 35.423 75.454 20.892 117.133-20.892 27.684-134.888c.263-1.373.409-2.687.438-4.001v-.467c-.117-10.367-8.177-18.164-16.236-18.164h-154.333c-11.506 0-19.215 8.031-21.405 17.493z" fill="#dddaec" fill-rule="evenodd"/></g><g><path clip-rule="evenodd" d="m449.245 281.049c1.548 10.863 2.365 22.107 2.365 33.612 0 48.652-14.718 92.573-38.401 123.908h70.669l27.684-134.888c.263-1.373.409-2.687.438-4.001v-.467c-.117-10.367-8.177-18.164-16.236-18.164z" fill="#beb9dd" fill-rule="evenodd"/></g><g><path clip-rule="evenodd" d="m409.355 344.039c-10.425 0-19.332 8.235-19.887 18.369-.555 10.133 7.447 18.369 17.901 18.369 10.425 0 19.332-8.235 19.857-18.369.555-10.133-7.446-18.369-17.871-18.369z" fill="#3bc3a4" fill-rule="evenodd"/></g><g><path clip-rule="evenodd" d="m507.298 438.569h-502.596c-2.599 0-4.702 2.132-4.702 4.731v43.775c0 2.599 2.103 4.702 4.702 4.702h502.597c2.57 0 4.702-2.103 4.702-4.702v-43.775c-.001-2.599-2.133-4.731-4.703-4.731z" fill="#935d38" fill-rule="evenodd"/></g><g><path clip-rule="evenodd" d="m459.582 443.3v43.775c0 2.599-2.103 4.702-4.702 4.702h52.418c2.57 0 4.702-2.103 4.702-4.702v-43.775c0-2.599-2.132-4.731-4.702-4.731h-23.42-28.939c2.57.029 4.643 2.161 4.643 4.731z" fill="#7f4d2a" fill-rule="evenodd"/></g></g></svg>