<svg id="Capa_1" enable-background="new 0 0 483.256 483.256" height="512" viewBox="0 0 483.256 483.256" width="512" xmlns="http://www.w3.org/2000/svg"><g><g id="icon_76_"><path d="m422.33 344.268-9.5-43.245c-8.351-39.399-36.588-71.621-74.551-85.07l-51.749-18.146h-89.921l-51.632 18.146c-37.968 13.483-66.238 45.678-74.698 85.07l-9.359 43.245z" fill="#575b6d"/><g fill="#f4bb87"><path d="m196.662 180.887h89.874v37.069h-89.874z"/><path d="m312.407 103.678c8.983 0 16.266 7.282 16.266 16.266 0 8.983-7.282 16.266-16.266 16.266h-4.921v-32.531z"/><path d="m170.796 103.678c-8.983 0-16.266 7.282-16.266 16.266 0 8.983 7.282 16.266 16.266 16.266h4.921v-32.531z"/></g><path d="m172.558 50.926v77.881c.023 38.081 30.912 68.934 68.993 68.911 2.297-.001 4.592-.118 6.878-.348 35.861-3.3 62.104-35.572 62.104-71.575v-74.845z" fill="#fed19a"/><path d="m201.512 21.53c10.667-22.082 34.181-23.862 55.097-19.802 27.958 5.428 52.239 24.622 59.281 52.215 4.363 14.733 2.444 30.613-5.304 43.882-3.112.589-12.376-8.416-13.82-14.209-5.893-23.243-14.834-22.784-14.834-22.784-12.007 6.818-26.21 8.655-39.556 5.115-12.183-2.744-24.761-3.263-37.128-1.532-33.097 5.127-32.667 38.69-32.667 38.69-12.405-43.032-5.834-82.476 28.931-81.575z" fill="#414451"/><path d="m237.02 344.268h9.217 9.217l5.387-19.283v-.142l29.49-106.905h-3.831-4.108-1.42-19.707-19.708-19.707-19.707-1.279-4.255-3.683l29.49 106.622v.142l3.548 13.189.141.283 1.697 6.094h1.704z" fill="#eeefee"/><path d="m261.336 217.95-8.505 24.681h-22.459l-8.504-24.681z" fill="#da364c"/><path d="m229.506 344.268-3.401-6.094-.141-.283-4.114-7.803.566-5.386v-.142l2.41-24.528v-.141l5.528-57.283h22.548l5.528 57.424 2.411 24.811v.142l.424 5.103-5.104 14.18h-.707-9.217-9.217z" fill="#ef5261"/><path d="m286.536 197.747-44.937 20.203 33.998 32.401z" fill="#dbd8dd"/><path d="m196.668 197.747 44.931 20.203-33.993 32.401z" fill="#dbd8dd"/><path d="m255.454 344.268h-9.217l12.193-44.236 14.321-52.315 8.221-29.779 5.528-20.132 28.359 32.467-25.948 19 25.948 31.335-54.584 63.66h-4.114z" fill="#414451"/><path d="m229.506 344.268h-1.704-4.82l-54.585-63.66 25.802-31.335-25.802-19 28.212-32.467 5.534 20.132 8.221 29.92 14.462 52.033v.141l12.194 44.236z" fill="#414451"/><path d="m427.104 294.251-11.062 156.722c-.835 11.844-10.686 21.026-22.56 21.027h-303.702c-11.873-.002-21.724-9.184-22.56-21.027l-11.067-156.722c-.879-12.461 8.51-23.275 20.971-24.154.529-.037 1.058-.056 1.588-.056h325.831c12.492.002 22.617 10.13 22.616 22.622.001.53-.018 1.059-.055 1.588z" fill="#eeefee"/><path d="m41.254 466.79h400.748v16.466h-400.748z" fill="#575b6d"/><circle cx="241.628" cy="377.695" fill="#dbd8dd" r="33.622"/></g></g></svg>