<svg height="512" viewBox="0 0 512 512" width="512" xmlns="http://www.w3.org/2000/svg"><g id="Flat"><path d="m16 400h56v16h-56z" fill="#ad7d4d"/><path d="m440 400h56v16h-56z" fill="#ad7d4d"/><path d="m320 207.43994a24.5822 24.5822 0 0 1 -24.56006 24.56006h-142.87994a24.54471 24.54471 0 0 1 -23.5-31.67993 24.23791 24.23791 0 0 1 3.07-6.51 70.66661 70.66661 0 0 0 11.87-39.22007v-50.59a80 80 0 1 1 160 0v50.59a70.711 70.711 0 0 0 11.87 39.22009 24.66735 24.66735 0 0 1 4.13 13.62985z" fill="#2f4054"/><path d="m384.58008 319.83-56.58008 16.17v64h-208v-64l-55.43-15.84009 11.87-37.12991a96.38367 96.38367 0 0 1 91.8-67.03h1.63a40.01451 40.01451 0 0 0 40-40h32a39.96249 39.96249 0 0 0 40 40 96.38214 96.38214 0 0 1 92.42 69.04z" fill="#8acce7"/><path d="m168 400a24.00619 24.00619 0 0 1 -24 24h-57.84a39.99584 39.99584 0 0 1 -38.23-51.76l16.64-52.08008 55.43 15.84008v40h24a24.002 24.002 0 0 1 24 24z" fill="#f4ceaf"/><path d="m361.84009 424h-73.84009a24 24 0 0 1 0-48h40v-40l56.58008-16.17 15.49 52.41a39.99589 39.99589 0 0 1 -38.22999 51.76z" fill="#f4ceaf"/><path d="m328 360h32v16h-32z" fill="#f2c194"/><path d="m266.14 212.79-4.82995 7.24a44.83828 44.83828 0 0 1 -74.62006 0l-4.07-6.1001a40.03969 40.03969 0 0 0 15.53-9.6499c.25995-.26.50995-.52.77-.79a39.88242 39.88242 0 0 0 10.95001-27.49h32a39.80716 39.80716 0 0 0 9.96 26.3999c.57.65015 1.15 1.27 1.76 1.88013a40.1052 40.1052 0 0 0 12.55 8.50997z" fill="#f4ceaf"/><g fill="#f2c194"><path d="m200 144h-48a16 16 0 0 1 -16-16v-16a16 16 0 0 1 16-16 16 16 0 0 1 16 16z"/><path d="m296 144h-32l16-32a16 16 0 0 1 16-16 16 16 0 0 1 16 16v16a16 16 0 0 1 -16 16z"/><path d="m251.83 202.3999a71.96948 71.96948 0 0 1 -52.91 1.0901 39.88242 39.88242 0 0 0 10.95-27.49h32a39.80716 39.80716 0 0 0 9.96 26.3999z"/></g><path d="m280 107.92993v28.07007a56 56 0 0 1 -112 0v-28.07007a11.9156 11.9156 0 0 1 11.93-11.92993 25.20237 25.20237 0 0 0 24.58-19.55 20.00354 20.00354 0 0 1 38.98 0 25.20237 25.20237 0 0 0 24.58007 19.55 11.92842 11.92842 0 0 1 11.92993 11.92993z" fill="#f4ceaf"/><circle cx="200" cy="120" fill="#2f4054" r="8"/><circle cx="248" cy="120" fill="#2f4054" r="8"/><path d="m72 360h48v16h-48z" fill="#f2c194"/><path d="m120 312h16v64h-16z" fill="#379ec3"/><path d="m312 312h16v64h-16z" fill="#379ec3"/><path d="m432 272v104h-96v-72h-96l-4.35 13.06006a16.01428 16.01428 0 0 1 -15.18 10.93994h-20.47a15.99559 15.99559 0 0 1 -16-16v-40a32.004 32.004 0 0 1 32-32h184a32.004 32.004 0 0 1 32 32z" fill="#c4d4e0"/><path d="m200 328h16v40h-16z" fill="#c4d4e0"/><rect fill="#ad7d4d" height="24" rx="12" width="64" x="312" y="216"/><rect fill="#ad7d4d" height="24" rx="12" width="64" x="312" y="160"/><path d="m328 184h32v32h-32z" fill="#008051"/><circle cx="384" cy="304" fill="#a6b2bc" r="16"/><rect fill="#a6b2bc" height="56" rx="8" width="32" x="432" y="264"/><rect fill="#a6b2bc" height="48" rx="8" width="288" x="168" y="376"/><path d="m284 460a28.30384 28.30384 0 0 1 7.14 28h-96.01a28.25982 28.25982 0 0 0 -7.13-28 28.2705 28.2705 0 0 1 0-40 28.2705 28.2705 0 0 0 0-40 28.1198 28.1198 0 0 1 -7.13-12h96a28.1198 28.1198 0 0 0 7.13 12 28.27036 28.27036 0 0 1 0 40 28.27036 28.27036 0 0 0 0 40z" fill="#349966"/><path d="m225.66 454.34a36.0751 36.0751 0 0 1 10.62 25.66 36.73076 36.73076 0 0 1 -.88 8h-16.77a20.30451 20.30451 0 0 0 -4.29-22.34009 36.30958 36.30958 0 0 1 0-51.31994 20.29765 20.29765 0 0 0 0-28.68006 36.04305 36.04305 0 0 1 -9.74-17.65991h16.77a20.09562 20.09562 0 0 0 4.29 6.34 36.30958 36.30958 0 0 1 0 51.31994 20.29765 20.29765 0 0 0 0 28.68006z" fill="#008051"/><path d="m263.18 285.06-6.31 18.94h-16.87l8-24z" fill="#a6b2bc"/></g></svg>