<svg height="512pt" viewBox="0 -37 512 512" width="512pt" xmlns="http://www.w3.org/2000/svg"><path d="m242.492188 153.492188v172.566406c0 14.496094 11.75 26.246094 26.246093 26.246094h217.011719c14.496094 0 26.25-11.75 26.25-26.246094v-172.566406zm0 0" fill="#ed5176"/><path d="m501.773438 106.476562c-17.378907 0-31.464844-14.085937-31.464844-31.464843v-64.515625c0-5.796875-4.703125-10.496094-10.5-10.496094h-21.976563c-.378906 0-.75.0195312-1.117187.0585938 5.273437.5585942 9.382812 5.0156252 9.382812 10.4375002v64.515625c0 17.378906 14.085938 31.464843 31.464844 31.464843 5.648438 0 10.226562 4.578126 10.226562 10.226563v209.355469c0 14.496094-11.75 26.246094-26.25 26.246094h24.210938c14.496094 0 26.25-11.75 26.25-26.246094v-209.355469c0-5.644531-4.578125-10.226563-10.226562-10.226563zm0 0" fill="#ba365f"/><path d="m501.773438 106.476562c-17.378907 0-31.464844-14.085937-31.464844-31.464843v-64.515625c0-5.796875-4.703125-10.496094-10.5-10.496094h-21.976563c-5.796875 0-10.496093 4.699219-10.496093 10.496094v37.765625c0 27.46875-21.769532 50.449219-49.234376 50.910156-28.054687.464844-50.945312-22.136719-50.945312-50.082031v-38.59375c0-5.796875-4.703125-10.496094-10.5-10.496094h-21.976562c-5.796876 0-10.496094 4.699219-10.496094 10.496094v64.519531c0 17.375-14.085938 31.460937-31.464844 31.460937-5.648438 0-10.230469 4.582032-10.230469 10.230469v36.785157l134.753907 64.652343 134.757812-64.652343v-36.789063c0-5.644531-4.578125-10.226563-10.226562-10.226563zm0 0" fill="#e9e9ea"/><path d="m501.773438 106.476562c-17.378907 0-31.464844-14.085937-31.464844-31.464843v-64.515625c0-5.796875-4.703125-10.496094-10.5-10.496094h-21.976563c-.09375 0-.1875.00390625-.28125.00390625-.003906 0-.007812 0-.015625 0-.273437.00781255-.546875.02734375-.820312.05468755 5.273437.5585942 9.382812 5.0195312 9.382812 10.4375002v64.519531c0 17.375 14.085938 31.460937 31.464844 31.460937 5.648438 0 10.226562 4.582032 10.226562 10.230469v48.402344l24.210938-11.617187v-36.789063c0-5.644531-4.578125-10.226563-10.226562-10.226563zm0 0" fill="#c5c4cc"/><path d="m114.464844 437.429688h-22.984375c-4.550781 0-8.242188-3.691407-8.242188-8.242188v-389.835938c0-4.554687 3.691407-8.242187 8.242188-8.242187h22.984375c4.550781 0 8.238281 3.691406 8.238281 8.242187v389.835938c0 4.550781-3.6875 8.242188-8.238281 8.242188zm0 0" fill="#e9e9ea"/><path d="m83.238281 159.804688h39.464844v23.179687h-39.464844zm0 0" fill="#c5c4cc"/><path d="m176.53125 159.804688h-147.121094c-16.242187 0-29.410156-13.167969-29.410156-29.414063 0-16.242187 13.167969-29.410156 29.410156-29.410156h147.121094c16.242188 0 29.410156 13.167969 29.410156 29.410156 0 16.246094-13.167968 29.414063-29.410156 29.414063zm0 0" fill="#575b7a"/><path d="m138.109375 62.21875h-70.277344c-12.480469 0-22.597656 10.117188-22.597656 22.597656v16.164063h115.476563v-16.164063c0-12.480468-10.117188-22.597656-22.601563-22.597656zm0 0" fill="#6a7193"/><path d="m176.53125 308.734375h-147.121094c-16.242187 0-29.410156 13.167969-29.410156 29.410156 0 16.242188 13.167969 29.410157 29.410156 29.410157h147.121094c16.242188 0 29.410156-13.167969 29.410156-29.410157 0-16.242187-13.167968-29.410156-29.410156-29.410156zm0 0" fill="#575b7a"/><path d="m176.53125 100.980469h-24.722656c16.242187 0 29.410156 13.167969 29.410156 29.410156 0 16.246094-13.167969 29.414063-29.410156 29.414063h24.722656c16.242188 0 29.410156-13.167969 29.410156-29.414063 0-16.242187-13.167968-29.410156-29.410156-29.410156zm0 0" fill="#252d4c"/><path d="m176.53125 308.734375h-24.722656c16.242187 0 29.410156 13.167969 29.410156 29.410156 0 16.242188-13.167969 29.410157-29.410156 29.410157h24.722656c16.242188 0 29.410156-13.167969 29.410156-29.410157 0-16.242187-13.167968-29.410156-29.410156-29.410156zm0 0" fill="#252d4c"/><path d="m138.109375 406.320312h-70.277344c-12.480469 0-22.597656-10.117187-22.597656-22.597656v-16.167968h115.476563v16.167968c0 12.480469-10.117188 22.597656-22.601563 22.597656zm0 0" fill="#6a7193"/><path d="m138.109375 62.21875h-24.722656c12.480469 0 22.597656 10.117188 22.597656 22.597656v16.164063h24.726563v-16.164063c0-12.480468-10.117188-22.597656-22.601563-22.597656zm0 0" fill="#575b7a"/><path d="m135.984375 367.554688v16.167968c0 12.476563-10.117187 22.597656-22.597656 22.597656h24.722656c12.480469 0 22.601563-10.121093 22.601563-22.597656v-16.167968zm0 0" fill="#575b7a"/><path d="m173.570312 427.574219h278.550782c12.027344 0 21.777344-9.75 21.777344-21.777344v-128.132813c0-11.4375-9.269532-20.707031-20.707032-20.707031h-4.800781c-5.996094 0-11.324219 3.816407-13.257813 9.492188-7.589843 22.304687-28.539062 37.304687-52.101562 37.304687-23.164062 0-43.847656-14.5-51.742188-36.277344-2.285156-6.316406-8.28125-10.519531-15-10.519531h-18.765624c-3.75 0-7.429688 1.015625-10.644532 2.945313l-136.988281 82.113281c-13.882813 8.320313-22.378906 23.316406-22.378906 39.503906 0 25.433594 20.621093 46.054688 46.058593 46.054688zm0 0" fill="#8cbafa"/><path d="m453.191406 256.957031h-4.800781c-3.699219 0-7.144531 1.449219-9.691406 3.894531 5.214843 3.761719 8.613281 9.890626 8.613281 16.8125v128.136719c0 12.023438-9.75 21.773438-21.777344 21.773438h26.585938c12.027344 0 21.777344-9.75 21.777344-21.773438v-128.136719c0-11.4375-9.269532-20.707031-20.707032-20.707031zm0 0" fill="#5692d8"/><path d="m274.601562 267.261719-26.359374 15.800781 100.835937 144.511719h37.386719zm0 0" fill="#f9aa4b"/><path d="m274.847656 427.574219h37.386719l-89.972656-128.941407-26.359375 15.800782zm0 0" fill="#f9aa4b"/><path d="m127.542969 382.726562c.640625 24.875 20.992187 44.847657 46.027343 44.847657h278.550782c12.027344 0 21.777344-9.75 21.777344-21.777344v-23.070313zm0 0" fill="#e9e9ea"/><path d="m447.3125 405.800781c0 12.019531-9.738281 21.765625-21.757812 21.773438h26.566406c12.027344 0 21.777344-9.75 21.777344-21.773438v-23.074219h-26.585938zm0 0" fill="#c5c4cc"/><path d="m207.804688 337.324219 81.648437-48.941407c5.875-3.519531 9.46875-9.863281 9.46875-16.710937v-14.71875h-1.398437c-3.75 0-7.429688 1.019531-10.644532 2.949219l-101.058594 60.574218c-4.273437 2.5625-5.359374 8.28125-2.324218 12.230469 5.757812 7.488281 16.207031 9.472657 24.308594 4.617188zm0 0" fill="#e9e9ea"/><path d="m382.023438 170.582031h-.941407v-30.285156c0-6.558594-5.335937-11.894531-11.894531-11.894531h-5.191406c-4.265625 0-7.726563 3.457031-7.726563 7.726562 0 4.269532 3.460938 7.726563 7.726563 7.726563h1.636718v26.726562h-.945312c-4.265625 0-7.726562 3.457031-7.726562 7.726563 0 4.269531 3.460937 7.726562 7.726562 7.726562h17.335938c4.269531 0 7.726562-3.457031 7.726562-7.726562 0-4.269532-3.457031-7.726563-7.726562-7.726563zm0 0" fill="#575b7a"/></svg>