<?xml version="1.0" encoding="UTF-8" standalone="no"?>
<svg
   xmlns:dc="http://purl.org/dc/elements/1.1/"
   xmlns:cc="http://creativecommons.org/ns#"
   xmlns:rdf="http://www.w3.org/1999/02/22-rdf-syntax-ns#"
   xmlns:svg="http://www.w3.org/2000/svg"
   xmlns="http://www.w3.org/2000/svg"
   xmlns:sodipodi="http://sodipodi.sourceforge.net/DTD/sodipodi-0.dtd"
   xmlns:inkscape="http://www.inkscape.org/namespaces/inkscape"
   version="1.1"
   id="svg2"
   xml:space="preserve"
   width="400"
   height="400"
   viewBox="0 0 400 400"
   sodipodi:docname="uzbekistan-flag-round.ai"><metadata
     id="metadata8"><rdf:RDF><cc:Work
         rdf:about=""><dc:format>image/svg+xml</dc:format><dc:type
           rdf:resource="http://purl.org/dc/dcmitype/StillImage" /></cc:Work></rdf:RDF></metadata><defs
     id="defs6"><clipPath
       clipPathUnits="userSpaceOnUse"
       id="clipPath18"><path
         d="M 150,300 C 67.157,300 0,232.843 0,150 v 0 C 0,67.157 67.157,0 150,0 v 0 c 82.843,0 150,67.157 150,150 v 0 c 0,82.843 -67.157,150 -150,150 z"
         id="path16" /></clipPath></defs><sodipodi:namedview
     pagecolor="#ffffff"
     bordercolor="#666666"
     borderopacity="1"
     objecttolerance="10"
     gridtolerance="10"
     guidetolerance="10"
     inkscape:pageopacity="0"
     inkscape:pageshadow="2"
     inkscape:window-width="640"
     inkscape:window-height="480"
     id="namedview4" /><g
     id="g10"
     inkscape:groupmode="layer"
     inkscape:label="uzbekistan-flag-round"
     transform="matrix(1.3333333,0,0,-1.3333333,0,400)"><g
       id="g12"><g
         id="g14"
         clip-path="url(#clipPath18)"><path
           d="M 0,300 H 600 V 204 H 0 Z"
           style="fill:#0099b5;fill-opacity:1;fill-rule:nonzero;stroke:none"
           id="path20" /><path
           d="M 0,204 H 600 V 96 H 0 Z"
           style="fill:#ce1126;fill-opacity:1;fill-rule:nonzero;stroke:none"
           id="path22" /><path
           d="M 0,198 H 600 V 102 H 0 Z"
           style="fill:#ffffff;fill-opacity:1;fill-rule:nonzero;stroke:none"
           id="path24" /><path
           d="M 0,96 H 600 V 0 H 0 Z"
           style="fill:#1eb53a;fill-opacity:1;fill-rule:nonzero;stroke:none"
           id="path26" /><g
           id="g28"
           transform="translate(84,288)"><path
             d="m 0,0 c 19.882,0 36,-16.118 36,-36 0,-19.882 -16.118,-36 -36,-36 -19.882,0 -36,16.118 -36,36 0,19.882 16.118,36 36,36"
             style="fill:#ffffff;fill-opacity:1;fill-rule:nonzero;stroke:none"
             id="path30" /></g><g
           id="g32"
           transform="translate(96,288)"><path
             d="m 0,0 c 19.882,0 36,-16.118 36,-36 0,-19.882 -16.118,-36 -36,-36 -19.882,0 -36,16.118 -36,36 0,19.882 16.118,36 36,36"
             style="fill:#0099b5;fill-opacity:1;fill-rule:nonzero;stroke:none"
             id="path34" /></g><g
           id="g36"
           transform="translate(156.191,283.0248)"><path
             d="M 0,0 4.233,-3.075 2.616,-8.05 6.848,-4.975 11.08,-8.05 9.463,-3.075 13.696,0 H 8.464 L 6.848,4.975 5.232,0 Z"
             style="fill:#ffffff;fill-opacity:1;fill-rule:nonzero;stroke:none"
             id="path38" /></g><g
           id="g40"
           transform="translate(184.991,283.0248)"><path
             d="M 0,0 4.233,-3.075 2.616,-8.05 6.848,-4.975 11.08,-8.05 9.463,-3.075 13.696,0 H 8.464 L 6.848,4.975 5.232,0 Z"
             style="fill:#ffffff;fill-opacity:1;fill-rule:nonzero;stroke:none"
             id="path42" /></g><g
           id="g44"
           transform="translate(213.791,283.0248)"><path
             d="M 0,0 4.233,-3.075 2.616,-8.05 6.848,-4.975 11.08,-8.05 9.463,-3.075 13.696,0 H 8.464 L 6.848,4.975 5.232,0 Z"
             style="fill:#ffffff;fill-opacity:1;fill-rule:nonzero;stroke:none"
             id="path46" /></g><g
           id="g48"
           transform="translate(156.7037,254.2347)"><path
             d="M 0,0 4.233,-3.075 2.616,-8.05 6.848,-4.975 11.08,-8.05 9.463,-3.075 13.696,0 H 8.464 L 6.848,4.975 5.232,0 Z"
             style="fill:#ffffff;fill-opacity:1;fill-rule:nonzero;stroke:none"
             id="path50" /></g><g
           id="g52"
           transform="translate(185.5037,254.2347)"><path
             d="M 0,0 4.233,-3.075 2.616,-8.05 6.848,-4.975 11.08,-8.05 9.463,-3.075 13.696,0 H 8.464 L 6.848,4.975 5.232,0 Z"
             style="fill:#ffffff;fill-opacity:1;fill-rule:nonzero;stroke:none"
             id="path54" /></g><g
           id="g56"
           transform="translate(214.3037,254.2347)"><path
             d="M 0,0 4.233,-3.075 2.616,-8.05 6.848,-4.975 11.08,-8.05 9.463,-3.075 13.696,0 H 8.464 L 6.848,4.975 5.232,0 Z"
             style="fill:#ffffff;fill-opacity:1;fill-rule:nonzero;stroke:none"
             id="path58" /></g><g
           id="g60"
           transform="translate(127.9037,254.2347)"><path
             d="M 0,0 4.233,-3.075 2.616,-8.05 6.848,-4.975 11.08,-8.05 9.463,-3.075 13.696,0 H 8.464 L 6.848,4.975 5.232,0 Z"
             style="fill:#ffffff;fill-opacity:1;fill-rule:nonzero;stroke:none"
             id="path62" /></g><g
           id="g64"
           transform="translate(156.3516,225.4248)"><path
             d="M 0,0 4.233,-3.075 2.616,-8.05 6.848,-4.975 11.08,-8.05 9.463,-3.075 13.696,0 H 8.464 L 6.848,4.975 5.232,0 Z"
             style="fill:#ffffff;fill-opacity:1;fill-rule:nonzero;stroke:none"
             id="path66" /></g><g
           id="g68"
           transform="translate(185.1516,225.4248)"><path
             d="M 0,0 4.233,-3.075 2.616,-8.05 6.848,-4.975 11.08,-8.05 9.463,-3.075 13.696,0 H 8.464 L 6.848,4.975 5.232,0 Z"
             style="fill:#ffffff;fill-opacity:1;fill-rule:nonzero;stroke:none"
             id="path70" /></g><g
           id="g72"
           transform="translate(213.9516,225.4248)"><path
             d="M 0,0 4.233,-3.075 2.616,-8.05 6.848,-4.975 11.08,-8.05 9.463,-3.075 13.696,0 H 8.464 L 6.848,4.975 5.232,0 Z"
             style="fill:#ffffff;fill-opacity:1;fill-rule:nonzero;stroke:none"
             id="path74" /></g><g
           id="g76"
           transform="translate(127.5516,225.4248)"><path
             d="M 0,0 4.233,-3.075 2.616,-8.05 6.848,-4.975 11.08,-8.05 9.463,-3.075 13.696,0 H 8.464 L 6.848,4.975 5.232,0 Z"
             style="fill:#ffffff;fill-opacity:1;fill-rule:nonzero;stroke:none"
             id="path78" /></g><g
           id="g80"
           transform="translate(98.7516,225.4248)"><path
             d="M 0,0 4.233,-3.075 2.616,-8.05 6.848,-4.975 11.08,-8.05 9.463,-3.075 13.696,0 H 8.464 L 6.848,4.975 5.232,0 Z"
             style="fill:#ffffff;fill-opacity:1;fill-rule:nonzero;stroke:none"
             id="path82" /></g></g></g></g></svg>
